<?xml version="1.0" encoding="UTF-8"?><svg id="Lager_2" xmlns="http://www.w3.org/2000/svg" viewBox="0 0 949 949"><defs><style>.cls-1{fill:#020202;}</style></defs><g id="Layer_5"><path class="cls-1" d="M474.5,0C212.44,0,0,212.44,0,474.5s212.44,474.5,474.5,474.5,474.5-212.44,474.5-474.5S736.56,0,474.5,0ZM109.07,561.82c-28.2,0-51.07-35.83-51.07-80.03s22.86-80.03,51.07-80.03v160.07Zm81.16,33.86c0,20.32-9.85,36.94-21.89,36.94h-27.36c-12.04,0-21.89-16.62-21.89-36.94v-227.79c0-20.32,9.85-36.94,21.89-36.94h27.36c12.04,0,21.89,16.62,21.89,36.94v227.79Zm115.82,76.95c0,20.32-9.85,36.94-21.89,36.94h-58.36c-12.04,0-21.89-16.62-21.89-36.94V290.94c0-20.32,9.85-36.94,21.89-36.94h58.36c12.04,0,21.89,16.62,21.89,36.94v381.7Zm329.38-135.44H314.18v-123.13h321.25v123.13Zm110.8,135.44c0,20.32-9.7,36.94-21.56,36.94h-57.51c-11.86,0-21.56-16.62-21.56-36.94V290.94c0-20.32,9.7-36.94,21.56-36.94h57.51c11.86,0,21.56,16.62,21.56,36.94v381.7Zm83.56-76.95c0,20.32-9.7,36.94-21.57,36.94h-26.96c-11.86,0-21.56-16.62-21.56-36.94v-227.79c0-20.32,9.7-36.94,21.56-36.94h26.96c11.86,0,21.57,16.62,21.57,36.94v227.79Zm9.88-33.86v-160.07c27.79,0,50.32,35.83,50.32,80.03s-22.53,80.03-50.32,80.03Z"/></g></svg>